<?xml version="1.0" encoding="UTF-8"?>
<svg width="77px" height="64px" viewBox="0 0 77 64" version="1.1" xmlns="http://www.w3.org/2000/svg" xmlns:xlink="http://www.w3.org/1999/xlink">
    <!-- Generator: Sketch 58 (84663) - https://sketch.com -->
    <title>Group 5</title>
    <desc>Created with Sketch.</desc>
    <defs>
        <linearGradient x1="50%" y1="0%" x2="50%" y2="100%" id="linearGradient-1">
            <stop stop-color="#EEEEF6" offset="0%"></stop>
            <stop stop-color="#D9D9E9" offset="100%"></stop>
        </linearGradient>
        <linearGradient x1="50%" y1="0%" x2="50%" y2="100%" id="linearGradient-2">
            <stop stop-color="#EEEEF6" offset="0%"></stop>
            <stop stop-color="#D9D9E9" offset="100%"></stop>
        </linearGradient>
        <linearGradient x1="50%" y1="0%" x2="50%" y2="100%" id="linearGradient-3">
            <stop stop-color="#EEEEF6" offset="0%"></stop>
            <stop stop-color="#D9D9E9" offset="100%"></stop>
        </linearGradient>
    </defs>
    <g id="Page-Name" stroke="none" stroke-width="1" fill="none" fill-rule="evenodd">
        <g id="Group-3" transform="translate(-23.000000, -22.000000)">
            <g id="Group-2">
                <g id="Group-5" transform="translate(21.000000, 23.000000)">
                    <path d="M58.0326674,20.3154825 C57.5803884,22.5021072 61.9368007,23.468048 64.1446488,23.9169263 C66.3515407,24.3648577 68.5077545,22.9566676 68.9609896,20.7700428 C69.4132686,18.5853121 65.7835625,16 65.7835625,16 C65.7835625,16 58.4859026,18.1288577 58.0326674,20.3154825" id="Fill-4" fill="#C5C5D4"></path>
                    <path d="M1.20801468,28.3058143 C4.75692339,23.8450917 7.3348285,22.1745769 8.94172999,23.29427 C11.3520822,24.9738096 7.50684582,30.2957614 10.7535989,31.6050509 C12.9181009,32.4779106 14.4576992,30.982929 15.3723937,27.1201061" id="Line" stroke="#C5C5D4" stroke-width="2" fill="url(#linearGradient-1)" stroke-linecap="round" transform="translate(8.290204, 27.401824) rotate(-135.000000) translate(-8.290204, -27.401824) "></path>
                    <path d="M35.9911351,57.6102882 C35.720287,59.3035648 34.1941978,60.4724928 32.5354179,60.2937564 L32.3572348,60.2694117 C30.6308793,59.9844389 30.3963451,59.1033589 29.7396494,56.57878 L29.113,54.976 L28.6221456,54.9681879 C28.0466375,54.9499565 27.4778599,54.9045809 26.9170124,54.8332792 L26.9174213,57.8736778 C26.9174213,59.5886053 25.5961601,60.9908398 23.9304882,61.0855065 L23.7507499,61.0906006 C22.0023206,61.0906006 21.6316646,60.2581062 20.5840786,57.8736778 L13.789106,46.3289233 C12.0222158,43.479332 11,40.1053048 11,36.4886631 C11,26.2772926 19.1489133,18 29.1998528,18 L57.8001472,18 C67.8520065,18 76,26.2772926 76,36.4886631 C76,43.0168622 72.6698071,48.754578 67.6409693,52.0443718 L66.4969507,56.3268827 C66.1368717,58.8251133 65.9985303,59.7517889 64.4685138,60.2445989 L64.3052057,60.2940782 L64.1308192,60.3386144 C62.5602615,60.69255 60.9739237,59.7880576 60.4525543,58.2419514 L60.3990619,58.0675528 L59.5219356,54.8956791 L59.408,54.904 L58.6054732,57.9117988 C58.2453942,60.4100294 58.1070528,61.3358319 56.5770363,61.8294276 L56.4137282,61.8789942 L56.2393417,61.9235305 C54.6687851,62.277466 53.0824758,61.3729737 52.5619046,59.8268675 L52.5085041,59.6524689 L51.215,54.977 L36.412,54.977 L35.9911351,57.6102882 Z" id="Combined-Shape" stroke="#C5C5D4" stroke-width="2" fill="url(#linearGradient-2)" stroke-linecap="round"></path>
                    <path d="M60.9672064,19.3154825 C61.4204363,21.5011602 57.063118,22.468048 54.8552953,22.9169263 C52.6484288,23.3648577 50.4922399,21.9566676 50.0390099,19.7700428 C49.5867362,17.5843651 53.2164005,15 53.2164005,15 C53.2164005,15 60.5139764,17.1288577 60.9672064,19.3154825" id="Fill-16" fill="#C5C5D4"></path>
                    <path d="M63,28.5 C63,29.327677 62.3285547,30 61.5,30 C60.6714453,30 60,29.327677 60,28.5 C60,27.6714453 60.6714453,27 61.5,27 C62.3285547,27 63,27.6714453 63,28.5" id="Fill-18" fill="#C5C5D4"></path>
                    <path d="M70,28.5 C70,29.327677 69.327677,30 68.5,30 C67.6714453,30 67,29.327677 67,28.5 C67,27.6714453 67.6714453,27 68.5,27 C69.327677,27 70,27.6714453 70,28.5" id="Fill-20" fill="#C5C5D4"></path>
                    <path d="M79,40.5 C79,42.9851544 76.0899623,45 72.5,45 C68.9100377,45 66,42.9851544 66,40.5 C66,38.0148456 68.9100377,36 72.5,36 C76.0899623,36 79,38.0148456 79,40.5" id="Fill-22" fill="#C5C5D4"></path>
                    <path d="M44.6494521,24 C44.6494521,24 40.9119318,23.6650116 37.1059253,23.6650116 C33.300832,23.6650116 29.3496347,24 29.3496347,24 C28.6035917,24 28,23.6279378 28,23.1691493 L28,23.1658391 C28,22.7077127 28.6035917,22.3349884 29.3496347,22.3349884 C29.3496347,22.3349884 33.4469359,22 37.1059253,22 C40.7649148,22 44.6494521,22.3349884 44.6494521,22.3349884 C45.394582,22.3349884 46,22.7077127 46,23.1658391 L46,23.1691493 C46,23.6279378 45.394582,24 44.6494521,24" id="Fill-24" fill="#C5C5D4"></path>
                    <path d="M72,40 C72,40.5520685 71.5527817,41 71,41 C70.4479315,41 70,40.5520685 70,40 C70,39.4479315 70.4479315,39 71,39 C71.5527817,39 72,39.4479315 72,40" id="Fill-34" fill="#D9D9E9"></path>
                    <path d="M77,40 C77,40.5520685 76.5522282,41 76.0003565,41 C75.4477718,41 75,40.5520685 75,40 C75,39.4479315 75.4477718,39 76.0003565,39 C76.5522282,39 77,39.4479315 77,40" id="Fill-36" fill="#D9D9E9"></path>
                    <circle id="Oval" stroke="#C5C5D4" stroke-width="1.5" fill="url(#linearGradient-3)" stroke-linecap="round" cx="36.5" cy="18.5" r="4.5"></circle>
                    <circle id="Oval" stroke="#C5C5D4" stroke-width="1.5" fill="url(#linearGradient-3)" stroke-linecap="round" cx="29.5" cy="4.5" r="4.5"></circle>
                </g>
            </g>
        </g>
    </g>
</svg>