<svg xmlns="http://www.w3.org/2000/svg" height="80" viewBox="0 0 51.33 97.92"><defs><style>.cls-1{fill:none;stroke:#0e5b73;stroke-miterlimit:10;stroke-width:0.5px;}.cls-2{fill:#343d44;}.cls-3{fill:#0e5b73;}</style></defs><title>working-brochure-print-ready</title><g id="stuff"><rect class="cls-1" x="1.92" y="1.84" width="47.66" height="84.4" rx="2.16" ry="2.16"/><path class="cls-2" d="M11.51,95.08,9.88,92.91H8.28v2.17H7.65v-5.6h2.41c1.23,0,2,.67,2,1.67a1.64,1.64,0,0,1-1.52,1.64l1.72,2.29Zm-1.5-5H8.28v2.27H10c.84,0,1.44-.43,1.44-1.16S10.92,90.07,10,90.07Z"/><path class="cls-2" d="M13.69,91.74l-.18-.51a3.52,3.52,0,0,1,1.5-.34,1.54,1.54,0,0,1,1.76,1.66v2.53h-.59v-.62a1.83,1.83,0,0,1-1.49.71,1.39,1.39,0,0,1-1.55-1.3c0-.88.72-1.34,1.77-1.34a4.17,4.17,0,0,1,1.27.18v-.15c0-.74-.46-1.13-1.23-1.13A2.86,2.86,0,0,0,13.69,91.74Zm.08,2.11c0,.53.48.83,1,.83a1.24,1.24,0,0,0,1.38-1.12v-.4A4.3,4.3,0,0,0,15,93C14.2,93,13.77,93.32,13.77,93.85Z"/><path class="cls-2" d="M19,93.9a.61.61,0,0,0,.69.69,1.32,1.32,0,0,0,.6-.14V95a1.53,1.53,0,0,1-.74.17A1.06,1.06,0,0,1,18.38,94V91.49h-.57V91h.57V89.7H19V91h1.31v.54H19Z"/><path class="cls-2" d="M21.54,90v-.68h.7V90Zm0,5V91h.62v4.13Z"/><path class="cls-2" d="M24.36,95.08h-.62V91h.62v.72a1.55,1.55,0,0,1,1.41-.81,1.51,1.51,0,0,1,1.59,1.65v2.57h-.62V92.67a1.1,1.1,0,0,0-1.14-1.25,1.22,1.22,0,0,0-1.24,1.29Z"/><path class="cls-2" d="M30.62,96.38a3.27,3.27,0,0,1-1.88-.58l.28-.48a2.66,2.66,0,0,0,1.59.53,1.37,1.37,0,0,0,1.51-1.47v-.49a2,2,0,0,1-1.63.87,2,2,0,0,1,0-3.9,1.94,1.94,0,0,1,1.62.83V91h.61v3.41A1.88,1.88,0,0,1,30.62,96.38Zm0-5a1.37,1.37,0,0,0-1.43,1.4,1.4,1.4,0,0,0,1.43,1.42,1.41,1.41,0,1,0,0-2.82Z"/><path class="cls-2" d="M42.06,95.08h-.68l-.66-1.48h-3L37,95.08h-.65l2.56-5.64h.59Zm-2.86-4.9L37.92,93h2.56Z"/><path class="cls-2" d="M44.76,90.33h.59V92H47v.57H45.35V94.2h-.59V92.55H43.09V92h1.67Z"/><path class="cls-3" d="M25.12,3.88C22.39,9.54,12.69,15,24.66,23.75c3.3,2.45,8.83,3.94,6,9.71-.25.44.18.56.58.23,4-4.68,10.62-12.09,5.08-18.12-3.15-3.4-9.6-5.64-10.89-8.87a3.2,3.2,0,0,1,.37-2.25c.28-.66-.54-.84-.69-.58Z"/><path class="cls-3" d="M25.27,3.88C22.54,9.54,12.84,15,24.8,23.75c3.3,2.45,8.84,3.94,6,9.71-.25.44.19.56.58.23C35.44,29,42,21.6,36.48,15.57c-3.15-3.4-9.6-5.64-10.89-8.87A3.15,3.15,0,0,1,26,4.45c.28-.66-.55-.84-.69-.58Z"/><path class="cls-3" d="M19.53,23.47c-1.4,3.81-8.48,8.19,1,13.25,2.19,1.31,5,2.94,4.7,5.33-.12.3.15.34.36.1,3.11-3.58,5.45-8.67,1.64-12.09-2-1.93-6.71-3-7.21-6.27.11-.46-.4-.5-.47-.32Z"/><path class="cls-3" d="M13.12,43.54H37v2.93H13.12Z"/><path class="cls-3" d="M13.15,43.46l-1.05,3,1.8,0Zm23.82,0,1.05,3-1.81,0ZM18.15,45.68l1.76,4.79,10.35,0,1.62-4.75Z"/><path class="cls-3" d="M5.6,53H8.75V67.15H5.6Z"/><path class="cls-3" d="M8.71,53l5.1,0c2.53-.07,4.47,4.44,1.2,6.87,4.36,1.22,2.79,7.13-.71,7.14l-5.64.09-.79-2.57,5.36,0c1.7,0,1.81-3.38,0-3.41l-4.92.09-.14-2.67h4.39c2,.09,1.38-3.1.05-3.1l-4.39-.09-.45-2L8.71,53Z"/><path class="cls-3" d="M19.2,53h3.15V67.15H19.2Z"/><path class="cls-3" d="M22.31,53l5.1,0c2.53-.07,4.47,4.44,1.2,6.87C33,61.13,31.4,67,27.9,67.05l-5.63.09-.8-2.57,5.37,0c1.7,0,1.81-3.38,0-3.41L22,61.29l-.14-2.67h4.39c2,.09,1.38-3.1.05-3.1l-4.39-.09-.44-2,.88-.44Z"/><path class="cls-3" d="M32.66,53h3.15V67.15H32.66Z"/><path class="cls-3" d="M35.76,53l5.11,0c2.53-.07,4.47,4.44,1.19,6.87,4.37,1.22,2.79,7.13-.7,7.14l-5.64.09-.8-2.57,5.37,0c1.7,0,1.81-3.38.05-3.41l-4.93.09-.13-2.67h4.39c2,.09,1.38-3.1,0-3.1l-4.39-.09-.44-2,.89-.44Z"/><path class="cls-3" d="M15.1,79.7h0c0-.21-.16-.33-.46-.33H14V80h.65C14.91,80,15.1,79.94,15.1,79.7Z"/><path class="cls-3" d="M2.69,69.83v14a1.56,1.56,0,0,0,1.56,1.56H47.1a1.56,1.56,0,0,0,1.56-1.56v-14Zm28.6,3.42H32v3.21h-.71Zm-3.95,0h1.25a1.6,1.6,0,0,1,1.7,1.6h0a1.6,1.6,0,0,1-1.7,1.6H27.34ZM11.58,76.46l-.29-.72H9.93l-.29.72H8.92l1.37-3.23h.65l1.38,3.23Zm1.22-1.6a1.63,1.63,0,0,1,1.67-1.66,1.67,1.67,0,0,1,1.27.49l-.45.52a1.21,1.21,0,0,0-.82-.36,1,1,0,0,0-.93,1h0a1,1,0,0,0,.93,1,1.13,1.13,0,0,0,.84-.37l.45.45a1.65,1.65,0,0,1-1.31.57,1.61,1.61,0,0,1-1.65-1.64ZM16,81.07c0,.58-.47.88-1.2.88H13.26V78.74h1.49c.65,0,1.05.33,1.05.83h0a.74.74,0,0,1-.42.69.79.79,0,0,1,.6.79Zm.45-6.21A1.63,1.63,0,0,1,18.1,73.2a1.66,1.66,0,0,1,1.26.49l-.45.52a1.19,1.19,0,0,0-.82-.36,1,1,0,0,0-.93,1h0a1,1,0,0,0,.93,1,1.17,1.17,0,0,0,.85-.37l.45.45a1.65,1.65,0,0,1-1.32.57,1.61,1.61,0,0,1-1.64-1.64Zm3.22,5.69A1.3,1.3,0,0,1,18.24,82a1.28,1.28,0,0,1-1.39-1.43V78.74h.71v1.81c0,.53.26.8.69.8s.69-.26.69-.77V78.74h.71ZM23,81c0,.63-.49,1-1.18,1a2.07,2.07,0,0,1-1.36-.51l.42-.5a1.46,1.46,0,0,0,1,.39c.28,0,.46-.12.46-.3h0c0-.18-.11-.27-.65-.41s-1.06-.34-1.06-1h0a1,1,0,0,1,1.12-1,1.84,1.84,0,0,1,1.19.4l-.36.53a1.58,1.58,0,0,0-.84-.31c-.27,0-.41.12-.41.28h0c0,.21.14.28.69.42s1,.4,1,1Zm-.79-4.54-.68-1H21v1h-.7V73.25h1.46c.76,0,1.21.4,1.21,1.06h0a1,1,0,0,1-.69,1l.79,1.15Zm1.71-3.21h2.41v.63H24.64v.65h1.51v.63H24.64v.67h1.74v.63H23.94Zm.77,8.7H24V78.74h.71Zm4,0h-.6l-1.55-2v2h-.7V78.74h.65l1.5,2v-2h.7Zm3.55,0H29.81V78.74h2.41v.63H30.51V80H32v.63H30.51v.67h1.74Zm3.28-1c0,.63-.49,1-1.18,1A2.07,2.07,0,0,1,33,81.48l.42-.5a1.46,1.46,0,0,0,1,.39c.28,0,.46-.12.46-.3h0c0-.18-.11-.27-.65-.41s-1.06-.34-1.06-1h0a1,1,0,0,1,1.12-1,1.84,1.84,0,0,1,1.19.4l-.36.53a1.58,1.58,0,0,0-.84-.31c-.27,0-.41.12-.41.28h0c0,.21.14.28.69.42s1,.4,1,1Zm0-7.09h-1v2.55h-.7V73.91h-1v-.66h2.66ZM38.75,81c0,.63-.48,1-1.17,1a2,2,0,0,1-1.36-.51l.41-.5a1.46,1.46,0,0,0,1,.39c.29,0,.46-.12.46-.3h0c0-.18-.11-.27-.64-.41s-1.07-.34-1.07-1h0a1,1,0,0,1,1.13-1,1.88,1.88,0,0,1,1.19.4l-.37.53a1.53,1.53,0,0,0-.83-.31c-.27,0-.42.12-.42.28h0c0,.21.14.28.7.42s1,.4,1,1Zm.14-4.54H36.45V73.25h2.41v.63H37.15v.65h1.51v.63H37.15v.67h1.74Zm3.91-1.6a1.6,1.6,0,0,1-1.7,1.6H39.85V73.25H41.1a1.6,1.6,0,0,1,1.7,1.6Z"/><path class="cls-3" d="M29.56,74.87h0a.92.92,0,0,0-1-1h-.54v1.93h.54A.91.91,0,0,0,29.56,74.87Z"/><polygon class="cls-3" points="10.18 75.12 11.04 75.12 10.61 74.08 10.18 75.12"/><path class="cls-3" d="M14.76,80.62H14v.71h.83c.31,0,.5-.11.5-.35h0C15.28,80.76,15.12,80.62,14.76,80.62Z"/><path class="cls-3" d="M41.1,73.89h-.54v1.93h.54a.91.91,0,0,0,1-.95h0A.92.92,0,0,0,41.1,73.89Z"/><path class="cls-3" d="M21.69,73.89H21v.92h.72c.34,0,.54-.18.54-.45h0C22.25,74.05,22,73.89,21.69,73.89Z"/></g></svg>