<svg xmlns="http://www.w3.org/2000/svg" width="36" height="64" viewBox="0 0 36 64">
    <path fill="#8FBF21" fill-rule="evenodd" d="M15.587 22.515c-1.177-1.715.288-4.528.746-6.405.917-3.771 1.833-7.544 2.747-11.314C19.094 4.742 3.76.28 2.568 0 1.96 2.42 1.518 4.451.375 6.699c-1.137 2.237.71 4.37.323 6.716-.478 2.872-.82 4.58.685 7.236 1.12 1.98.483 2.98 2.245 4.637l.06-.085s-.046.664-.175.884c-.903 1.544.363 3.818.924 5.333.665 1.793-.327 2.287-.206 3.996.136 1.951 1.754 3.725 2.555 5.44.3.638 1.505 2.44 1.369 3.112-.218 1.079-.886 1.378-.17 2.463 1.22 1.844 3.477 2.906 5.352 3.94.892.49 1.783.98 2.634 1.539 1.4.915.733 1.624 1.525 2.79 1.092 1.446 2.818 1.559 3.604 3.57.424 1.081-.263 4.682 1.092 4.824l8.498.872c1.989.203 2.21-.528 2.159-1.737-.029-.703.09-1.452.297-2.129.178-.573.602-1.04 1.015-1.458.696-.705.507-1.55.96-2.394.922-1.732.735-.67.879-2.384-.416-4.55-5.033-8.964-7.581-12.675L15.587 22.515"/>
</svg>
