<svg xmlns="http://www.w3.org/2000/svg" width="83" height="64" viewBox="0 0 83 64">
    <path fill="#8FBF21" fill-rule="evenodd" d="M78.03 57c0-.632.012-1.262.035-1.89.018-.487-.014.737-.035 1.89m-1.198-24.227c-2.518-4.055-5.765-7.955-6.941-12.691 3.83 2.228 2.545 5.558 5.283 8.7-1.21-1.994-1.12-4.073-1.963-5.987-.594-2.347-3.614-4.694-5-6.602A70.34 70.34 0 0 1 62.1 6.066C60.322 2.462 60.666.496 56.757 0c.176 2.114-.792 4.906-3.127 5.37-2.592.508-3.926-1.988-6.749-1.783-3.897.286-7.8.566-11.697.851-3.434.251-6.861.497-10.295.748-3.162.229-3.41-3.016-6.07-2.695C12.546 3.25 6.284 4.01 0 4.65c.74 1.399.894 3.21.396 4.7 5.447-1.69 11.59-1.867 16.54 1.337 2.018 1.308 3.421 4.58 5.842 3.987 2.24-.549 3.728-1.931 5.753-2.777 2.178-.908.922-2.381 2.975-2.936 6.047-1.627 8.994 5.804 13.15 8.437 4.108 2.599 6.212 2.919 6.133 8.282-.034 2.433-.362 4.86-.804 7.248-.209 1.148 1.211 4.056 2.291 2.245 2.563-4.296 2.942-.491.408 2.417-1.567 1.81 4.576 7.59 6.5 7.95-.646-.56-.832-1.166-.555-1.822 1.81 1.593 4.282 5.98 5.209 8.396 1.437 3.741 6.07 4.05 8.355 7.665.713 1.125.877 3.839 1.844 4.221 2.72-.074 3.869-.382 4.802-3.193.272-2.347 2.41-3.335 3.224-5.26.77-1.817 1.132-3.073.832-5.215-1.058-7.06-2.172-11.28-6.063-17.559"/>
</svg>
