<svg xmlns="http://www.w3.org/2000/svg" width="34" height="64" viewBox="0 0 34 64">
    <path fill="#8FBF21" fill-rule="evenodd" d="M32.625 30.42c-.717-7.66.271-18.294-3.312-25.177-.916-1.755-.976-5.423-3.084-5.236-2.246.2-4.486.392-6.726.591-3.102.272-6.222.398-9.329.58.198.289.373.59.53.904 1.68 3.3.385 7.245-1.855 9.934-1.343 1.611-3.156 2.962-5.221 3.438a4.997 4.997 0 0 1 .42 4.682C1.9 25.317-3.16 30.396 2.82 35.113c2.494 1.966 4.704 3.342 5.306 6.695 5.017-.802 7.282 4.084 5.668 8.198-1.482 3.77-.332 3.98 3.51 5.435 3.427 1.297 4.198 5.423 4.8 8.559 1.91-1.327 3.553-.084 4.794-1.895 1.65-2.394 2.282-1.369 3.144-4.1.325-.326.156-4.32.277-5.104.482-3.191 4.98-6.979 3.312-10.206-1.572-3.034-.656-8.547-1.006-12.275"/>
</svg>
