<?xml version="1.0" encoding="UTF-8"?>
<svg width="24px" height="24px" viewBox="0 0 24 24" version="1.1" xmlns="http://www.w3.org/2000/svg" xmlns:xlink="http://www.w3.org/1999/xlink">
    <!-- Generator: Sketch 57.1 (83088) - https://sketch.com -->
    <title>icons/25px/fill/info</title>
    <desc>Created with Sketch.</desc>
    <g id="Symbols" stroke="none" stroke-width="1" fill="none" fill-rule="evenodd">
        <g id="icons/24px/fill/info/#8fbf21" fill="#8FBF21" fill-rule="nonzero">
            <path d="M12,0 C18.627417,0 24,5.372583 24,12 C24,18.627417 18.627417,24 12,24 C5.372583,24 0,18.627417 0,12 C0,5.372583 5.372583,0 12,0 Z M12,16.6956522 C11.1355543,16.6956522 10.4347826,17.3964239 10.4347826,18.2608696 C10.4347826,19.1253153 11.1355543,19.826087 12,19.826087 C12.8644457,19.826087 13.5652174,19.1253153 13.5652174,18.2608696 C13.5652174,17.3964239 12.8644457,16.6956522 12,16.6956522 Z M12.0434783,4.17391304 L11.9565217,4.17391304 C11.4436859,4.17391304 11.0210146,4.55995323 10.9632495,5.05729192 L10.9565217,5.17391304 L10.9565217,13.6086957 C10.9565217,14.1215315 11.3425619,14.5442028 11.8399006,14.6019679 L11.9565217,14.6086957 L12.0434783,14.6086957 C12.5563141,14.6086957 12.9789854,14.2226555 13.0367505,13.7253168 L13.0434783,13.6086957 L13.0434783,5.17391304 C13.0434783,4.62162829 12.595763,4.17391304 12.0434783,4.17391304 Z" id="icons/25px/fill/info" transform="translate(12.000000, 12.000000) scale(1, -1) translate(-12.000000, -12.000000) "></path>
        </g>
    </g>
</svg>