<?xml version="1.0" encoding="UTF-8"?>
<svg width="14px" height="14px" viewBox="0 0 14 14" version="1.1" xmlns="http://www.w3.org/2000/svg" xmlns:xlink="http://www.w3.org/1999/xlink">
    <!-- Generator: Sketch 58 (84663) - https://sketch.com -->
    <title>linkedin</title>
    <desc>Created with Sketch.</desc>
    <g id="Landing-Page" stroke="none" stroke-width="1" fill="none" fill-rule="evenodd">
        <g id="1.1-LandingPage-LG" transform="translate(-1267.000000, -1025.000000)" fill="#FAFBFC" fill-rule="nonzero">
            <g id="Stacked-Group-5" transform="translate(1210.000000, 1016.000000)">
                <g id="linkedin" transform="translate(48.000000, 0.000000)">
                    <path d="M22.4644469,22.4680851 L19.7891688,22.4680851 L19.7891688,18.2635569 C19.7891688,17.2618435 19.7685525,15.9763518 18.3945315,15.9763518 C16.9998943,15.9763518 16.7864542,17.0653816 16.7864542,18.192006 L16.7864542,22.4680851 L14.1075379,22.4680851 L14.1075379,13.8322486 L16.6785214,13.8322486 L16.6785214,15.0110203 L16.7173287,15.0110203 C17.0750834,14.3318925 17.9494603,13.6151703 19.2555685,13.6151703 C21.9684411,13.6151703 22.4680851,15.4027314 22.4680851,17.7238929 L22.4680851,22.4680851 L22.4644469,22.4680851 Z M11.0842068,12.6534769 C10.2268081,12.6534769 9.53191489,11.9428183 9.53191489,11.0854196 C9.53191489,10.2280208 10.2268081,9.53191489 11.0842068,9.53191489 C11.9416055,9.53191489 12.6377115,10.2280208 12.6377115,11.0854196 C12.6377115,11.9428183 11.9416055,12.6534769 11.0842068,12.6534769 L11.0842068,12.6534769 Z M9.74535503,22.4680851 L12.4279095,22.4680851 L12.4279095,13.8322486 L9.74535503,13.8322486 L9.74535503,22.4680851 Z"></path>
                </g>
            </g>
        </g>
    </g>
</svg>