<?xml version="1.0" encoding="UTF-8"?>
<svg width="16px" height="24px" viewBox="0 0 16 24" version="1.1" xmlns="http://www.w3.org/2000/svg" xmlns:xlink="http://www.w3.org/1999/xlink">
    <!-- Generator: Sketch 57.1 (83088) - https://sketch.com -->
    <title>icons/25px/fill/location</title>
    <desc>Created with Sketch.</desc>
    <g id="Symbols" stroke="none" stroke-width="1" fill="none" fill-rule="evenodd">
        <g id="icons/24px/fill/location/#8fbf21" transform="translate(-4.000000, 0.000000)" fill="#8FBF21" fill-rule="nonzero">
            <path d="M12,0 C16.418278,0 20,3.58178678 20,8.00014468 C20,8.73544492 19.9008028,9.44757599 19.7150609,10.1238851 C19.5764302,10.7042637 19.3898127,11.2368819 19.1552083,11.7217398 C18.6763838,12.7113284 16.4424327,16.7161673 12.453355,23.7362564 C12.4069239,23.8179673 12.3392596,23.8856003 12.2575279,23.9319931 C12.0072418,24.0740611 11.689178,23.9863294 11.5471125,23.7360387 C7.53254529,16.6633097 5.29864927,12.6585331 4.84537037,11.7217398 C4.64917232,11.3162564 4.48577317,10.8638946 4.35517294,10.3646542 C4.12430734,9.61735135 4,8.82326504 4,8.00014468 C4,3.58178678 7.581722,0 12,0 Z M12,3.20217483 C9.43029266,3.20217483 7.34713326,5.2853719 7.34713326,7.85512571 C7.34713326,10.4248795 9.43029266,12.5080766 12,12.5080766 C14.5697073,12.5080766 16.6528667,10.4248795 16.6528667,7.85512571 C16.6528667,5.2853719 14.5697073,3.20217483 12,3.20217483 Z" id="icons/25px/fill/location"></path>
        </g>
    </g>
</svg>