<svg xmlns="http://www.w3.org/2000/svg" width="92" height="48" viewBox="0 0 92 48">
    <path fill="#8FBF21" fill-rule="evenodd" d="M80.975 22.991c7.496 2.754 10.706 14.297-.608 12.6-3.148-.48-11.507-10.055-8.23-8.5-3.484-7.077-11.012-2.883-13.569-8.534.959-1.89 8.807-11.208 8.007-12.04-4.442.72-6.073-1.826-6.696-6.517-6.952 1.586-8.774 8.63-16.061 10.118-7.528 1.537-15.04 3.074-22.566 4.611-5.658 1.154-11.38 2.067-17.054 3.09-6.04 1.09-3.69 12.649-3.995 18.012-.72 13.144 12.945 5.54 22.822 3.506 6.569-1.36 13.121-2.865 19.705-4.066 11.156-2.065 6.905-1.664 14.512 5.492 3.069 1.121 6.217 3.683 6.282 7.237 3.227-2.099 6.311-8.822 9.715-9.752a18.402 18.402 0 0 0 1.534 5.78c4.38-2.945 9.127-4.947 13.745-7.429 8.71-4.674-.864-13.112-7.543-13.608"/>
</svg>
