<svg xmlns="http://www.w3.org/2000/svg" width="51" height="64" viewBox="0 0 51 64">
    <path fill="#8FBF21" fill-rule="evenodd" d="M.31 8.1c1.924 6.061 2.585 12 2.739 18.424.064 3.023 2.03 6.17 2.054 9.567.005 1.56-.579 3.166-1.753 4.212C8.934 43.475 6.14 58.544 6.177 64a830.205 830.205 0 0 0 41.086-1.338c-.732-1.887-4.162-2.535-5.378-4.463-2.25-3.533-7.366-2.63-8.436-7.228-.501-2.166-.649-4.546-.336-6.735.478-3.343-3.147-5.105-.543-8.722 2.922-4.123 3.524-3.201 3.654-8.234.023-1.44.396-2.88 1.228-4.064.862-1.225 2.225-2.421 3.323-3.355C44.518 16.65 46.867 12.251 51 9.474c-2.562-.792-4.357 2.087-7.527.957-1.186-.422-2.066-1.047-2.898-1.94-1.157-.523-1.813.53-3.182.138-2.728-.78-3.896-4.45-6.742-4.45-2.337 0-3.89 2.766-6.658 1.017-1.901-1.208-3.844-1.208-6.08-1.72C14.671 2.74 15.733-.08 12.404.002 8.337.097 4.275.133.209.133c.49 2.612-.756 5.271.1 7.966"/>
</svg>
