<svg xmlns="http://www.w3.org/2000/svg" width="42" height="64" viewBox="0 0 42 64">
    <path fill="#8FBF21" fill-rule="evenodd" d="M35.06 6.016C28.972 4.833 22.91 3.51 16.85 2.21 14.124 1.628 11.418.958 8.707.319 4.97-.561 5.748.293 4.856 3.967c-1.6 6.611-3.191 13.222-4.84 19.821-.231.928 2.094 3.367 2.589 4.09L9.998 38.67 21.29 55.156c2.011 2.938 3.992 5.897 5.986 8.844.056-2.411-.505-5.32 2.176-6.616-.428.204-1.994.941.032-.017a.386.386 0 0 1 .028-.011c1.252-.577 2.647-.495 3.767.29 1.482-5.472 1.884-11.795 2.885-17.381 1.548-8.674 3.1-17.348 4.648-26.022.393-2.211.791-4.422 1.185-6.634.131-.73-5.929-1.396-6.939-1.593"/>
</svg>
