<svg xmlns="http://www.w3.org/2000/svg" width="77" height="64" viewBox="0 0 77 64">
    <path fill="#8FBF21" fill-rule="evenodd" d="M72.819 64c1.83-5.605 5.146-1.103 3.913-7.937-.349-1.921-.67-3.692-1.277-5.507-1.421-4.262.58-9.458.07-13.854-.4-3.451-1.348-9.956-3.894-11.851-4.29-3.203-5.924-19.6-6.702-24.851-4.056 1.024-8.256 2.554-12.402 3.088-7.183.934-8.47 10.028-12.026 14.797-3.18 4.253.475 5.205.17 9.965-.366 5.74-5.155 11.637-10.31 13.942-7.836 3.559-16.512.579-24.445 3.425 4.422 7.11-1.35 13.284-5.916 18.285 13.697-2.296 27.341-5.267 40.904-8.221 8.693-1.895 15.163-5.392 21.925 2.296 3.182 3.612 4.986 5.222 9.99 6.423"/>
</svg>
