<svg xmlns="http://www.w3.org/2000/svg" width="50" height="56" viewBox="0 0 50 56">
    <g fill="none" fill-rule="evenodd">
        <path fill="#8FBF21" fill-rule="nonzero" d="M50 31.213C50 44.903 38.903 56 25.213 56h-.426C11.097 56 0 44.903 0 31.213V0h50v31.213z"/>
        <g fill="#FFF">
            <path d="M45.76 23.128c-.15.004-.261.007-.334.007a3.995 3.995 0 0 1-1.862-.453 3.749 3.749 0 0 1-1.403-1.227c-.444-.66-.668-1.534-.668-2.623v-6.283H44.4v2.93h1.306v3.032H44.4c0 .607.097 1.027.29 1.257.195.23.552.345 1.07.345v3.015zM34.726 15.426a1.864 1.864 0 0 0-.148-.007c-.368 0-.652.12-.851.36-.2.241-.3.583-.3 1.028v.26h1.3v3.008h-1.3v2.945H30.52v-6.497c0-.73.127-1.355.382-1.872.321-.659.809-1.197 1.465-1.614.656-.417 1.338-.626 2.048-.626l.311.009v3.006zM40.205 15.426a1.858 1.858 0 0 0-.148-.007c-.367 0-.651.12-.85.36-.2.241-.3.583-.3 1.028v.26h1.298v3.008h-1.298v2.945H36v-6.497c0-.73.128-1.355.382-1.872.32-.659.81-1.197 1.464-1.614.656-.417 1.338-.626 2.049-.626l.31.009v3.006zM29.209 17.157v6.496c0 .732-.127 1.356-.382 1.871-.32.661-.808 1.2-1.465 1.617-.655.416-1.337.624-2.047.624l-.31-.008V24.75c.066.005.115.009.146.009.368 0 .652-.12.851-.361.2-.24.3-.582.3-1.028v-.094c-.034.001-.067.005-.102.005h-.736c-.968 0-1.745-.348-2.33-1.043-.462-.548-.693-1.338-.693-2.371V15.48h2.906v4.119c0 .322.034.545.102.672.066.124.19.187.365.187.317 0 .48-.273.487-.817V15.48h2.908v1.677zM21.032 20.19c0 .858-.293 1.588-.88 2.19-.585.6-1.294.901-2.128.901-.86 0-1.633-.358-2.317-1.075-.755.717-1.518 1.075-2.284 1.075-.969 0-1.747-.348-2.333-1.043-.46-.548-.69-1.338-.69-2.371V15.48h2.905v4.119c0 .322.034.545.101.672.068.124.19.187.366.187.328 0 .49-.286.49-.86V15.48h2.906v4.119c0 .322.036.545.107.672.068.124.191.187.368.187.321 0 .482-.286.482-.86V15.48h2.907v4.71zM9.73 15.564a2.316 2.316 0 0 0-.146-.008c-.368 0-.653.12-.851.361-.196.236-.295.57-.299 1h.012v2.107c0 .731-.127 1.355-.381 1.872A3.929 3.929 0 0 1 6.6 22.51c-.656.417-1.338.625-2.05.625l-.31-.007V20.12c.068.006.118.008.15.008.368 0 .65-.12.85-.36.195-.235.293-.57.298-1h-.012v-2.106c0-.732.128-1.356.38-1.872.322-.66.81-1.199 1.467-1.616.654-.415 1.337-.625 2.047-.625l.31.008v3.007zM20.647 6.052h2.906V3.185h-2.906zM14.836 6.052h2.906V3.185h-2.906zM9.025 6.052h2.906V3.185H9.025zM3.214 6.052H6.12V3.185H3.214zM26.458 6.052h2.906V3.185h-2.906zM32.27 6.052h2.905V3.185h-2.906zM38.08 6.052h2.906V3.185H38.08zM43.891 6.052h2.906V3.185h-2.906z"/>
        </g>
    </g>
</svg>
