<svg xmlns="http://www.w3.org/2000/svg" width="64" height="36" viewBox="0 0 64 36">
    <g fill="none" fill-rule="evenodd">
        <path fill="#FFF" d="M61.894 29.129c-.217.005-.376.01-.48.01a5.786 5.786 0 0 1-2.681-.648 5.386 5.386 0 0 1-2.02-1.754c-.64-.943-.964-2.193-.964-3.75v-8.983h4.187v4.19h1.88v4.333h-1.88c0 .869.14 1.468.419 1.798.279.329.794.493 1.539.493v4.31zM46.006 18.118a2.703 2.703 0 0 0-.213-.012c-.53 0-.94.173-1.226.516-.287.345-.431.834-.431 1.469v.373h1.87v4.299h-1.87v4.21h-4.187v-9.288c0-1.044.183-1.937.55-2.676.462-.942 1.165-1.712 2.11-2.308.944-.596 1.927-.894 2.948-.894l.449.012v4.299zM53.896 18.118a2.695 2.695 0 0 0-.214-.012c-.529 0-.938.173-1.225.516-.288.345-.43.834-.43 1.469v.373h1.869v4.299h-1.87v4.21h-4.185v-9.288c0-1.044.184-1.937.55-2.676.46-.942 1.164-1.712 2.107-2.308.945-.596 1.927-.894 2.95-.894l.448.012v4.299zM38.06 20.592V29.879c0 1.046-.182 1.94-.549 2.675-.46.945-1.164 1.715-2.11 2.311-.943.596-1.925.893-2.947.893l-.448-.011v-4.3c.096.008.166.013.212.013.53 0 .938-.173 1.225-.517.288-.343.431-.832.431-1.468v-.135c-.049.002-.096.007-.146.007h-1.06c-1.394 0-2.513-.498-3.356-1.492-.664-.782-.997-1.911-.997-3.389v-6.272H32.5v5.889c0 .46.048.78.146.96.096.179.273.268.526.268.457 0 .69-.39.702-1.168v-5.949h4.187v2.398zM26.287 24.927c0 1.228-.423 2.271-1.268 3.133-.842.857-1.863 1.287-3.064 1.287-1.24 0-2.351-.511-3.337-1.536-1.087 1.025-2.186 1.536-3.289 1.536-1.395 0-2.516-.498-3.36-1.492-.661-.782-.994-1.911-.994-3.389v-6.272h4.184v5.889c0 .46.05.78.146.96.098.179.274.268.527.268.471 0 .705-.408.705-1.228v-5.89h4.185v5.89c0 .46.052.78.153.96.1.179.276.268.531.268.463 0 .693-.408.693-1.228v-5.89h4.188v6.734zM10.012 18.315a3.359 3.359 0 0 0-.211-.012c-.53 0-.94.172-1.226.516-.282.337-.424.814-.43 1.43h.018v3.012c0 1.046-.183 1.937-.55 2.676-.461.942-1.165 1.712-2.109 2.307-.944.596-1.927.894-2.95.894l-.448-.01v-4.3c.098.009.169.011.214.011.531 0 .936-.17 1.225-.514.281-.337.423-.815.43-1.43h-.017v-3.011c0-1.046.184-1.939.548-2.676.463-.944 1.166-1.715 2.11-2.31.942-.594 1.927-.894 2.949-.894l.447.012v4.299z"/>
        <path fill="#8FBF21" d="M25.732 4.715h4.184v-4.1h-4.184zM17.364 4.715h4.184v-4.1h-4.184zM8.996 4.715h4.184v-4.1H8.996zM.628 4.715h4.184v-4.1H.628zM34.1 4.715h4.184v-4.1H34.1zM42.468 4.715h4.184v-4.1h-4.184zM50.836 4.715h4.184v-4.1h-4.184zM59.204 4.715h4.184v-4.1h-4.184z"/>
    </g>
</svg>
