<svg xmlns="http://www.w3.org/2000/svg" width="67" height="64" viewBox="0 0 67 64">
    <path fill="#8FBF21" fill-rule="evenodd" d="M64.362 26.948c-.394-1.416-.148-3.309-.194-4.746l-.11-3.488c-.033-1.326-.406-.412-1.438-1.24-1.047-.82-2.844-1.435-4.037-1.59-2.75-.367-4.844 2.211-7.087.273-1.36-1.17-2.623 2.026-4.113-.07-1.11-.251-1.053-.063-2.307-.063-.704-.021-1.305-.294-1.803-.82-.959-.972-1.056-.26-2.249-.672-2.273-.786-9.209-2.287-9.033-5.426.161-2.854.228-5.711.337-8.568-1.09-.003-12.657-.594-12.66-.534-.355 4.953-.667 9.908-1.101 14.852-.216 2.45-.404 4.895-.565 7.349-.064.988.16 2.684-.237 3.603-.134 2.026-2.756 1.45-4.049 1.365-4.574-.3-9.154-.656-13.716-1.096 2.018 2.196 4.671 4.631 6.05 7.28 1.68 3.232 1.796 5.77 4.874 8.054.901.67 1.818 1.344 2.792 1.902.896-1.64 2.258-3.221 3.925-4.118 3.035-1.635 6.756-.468 9.178 1.68 4.083 3.618 5.518 9.547 9.14 13.39.889.946.74 1.98.798 3.169.063 1.31 1.496 3.736 2.34 4.78.54.67 1.873.327 2.574.57 1.375.476 2.668.795 4.024 1.216-1.517-5.95-.084-11.655 5.464-14.888.203-1.444 1.767-2.023 3.047-2.023 1.606 0 2.769-1.01 4.059-2.047 1.317-1.059 2.094-6.9 4.82-3.88 4.01-1.306 2.734-2.716 3.453-6.025.407-1.872.838-2.466-.1-4.374-.461-1.258-1.748-2.633-2.076-3.815"/>
</svg>
