<?xml version="1.0" encoding="UTF-8"?>
<svg height="80" viewBox="0 0 253 269" version="1.1" xmlns="http://www.w3.org/2000/svg" xmlns:xlink="http://www.w3.org/1999/xlink">
    <!-- Generator: Sketch 58 (84663) - https://sketch.com -->
    <title>Trusted_Choice</title>
    <desc>Created with Sketch.</desc>
    <defs>
        <polygon id="path-1" points="0.859513984 0.743 127.11792 0.743 127.11792 105.334 0.859513984 105.334"></polygon>
        <polygon id="path-3" points="7.07938253e-05 0.667 245.804 0.667 245.804 178.94 7.07938253e-05 178.94"></polygon>
    </defs>
    <g id="Page-1" stroke="none" stroke-width="1" fill="none" fill-rule="evenodd">
        <g id="swyfft_email_template_F" transform="translate(-131.000000, -1088.000000)">
            <g id="Group" transform="translate(131.000000, 1044.000000)">
                <g id="Group-111">
                    <g id="Trusted_Choice" transform="translate(0.000000, 44.000000)">
                        <g id="Group-3" transform="translate(19.000000, 0.000000)">
                            <mask id="mask-2" fill="white">
                                <use xlink:href="#path-1"></use>
                            </mask>
                            <g id="Clip-2"></g>
                            <path d="M100.386,105.334 C100.386,105.334 111.386,96.334 126.386,99.667 L127.052,94.667 C127.052,94.667 128.386,88.334 119.052,90.334 C119.052,90.334 118.052,84.001 108.053,85.001 C108.053,85.001 79.72,87.001 67.72,63.667 C67.72,63.667 61.72,53.667 50.72,48.334 C50.72,48.334 33.386,38.334 21.053,5.667 C21.053,5.667 17.386,-3.332 15.386,3.001 C15.386,3.001 12.719,16.667 20.053,38.667 C20.053,38.667 13.053,35.001 5.72,24.001 C5.72,24.001 -0.281,16.001 1.053,25.667 C1.053,25.667 3.053,38.334 18.053,59.334 C18.053,59.334 15.386,51 15.386,46.334 C15.386,46.334 22.053,54.001 34.386,61.001 C34.386,61.001 27.053,50.334 29.386,28.667 C29.386,28.667 39.72,46.334 50.72,54.667 C50.72,54.667 60.053,59.667 63.386,67.334 C63.386,67.334 70.053,84.334 89.386,96.001 L80.053,84.667 C80.053,84.667 87.386,90.334 109.053,87.334 C109.053,87.334 113.72,86.334 116.386,91.001 L120.72,91.667 C120.72,91.667 124.053,92.334 123.72,96.001 C123.72,96.001 109.053,96.334 100.386,105.334" id="Fill-1" fill="#283165" mask="url(#mask-2)"></path>
                        </g>
                        <path d="M55.053,81.001 C55.053,81.001 49.386,83.334 42.386,82.334 C42.386,82.334 46.053,88.334 49.72,89.334 C49.72,89.334 37.386,89.334 24.053,77.667 L38.053,76.667 C38.053,76.667 25.053,65.334 21.053,53.334 C21.053,53.334 32.387,61.334 39.72,63.001 C39.72,63.001 46.386,75.334 55.053,81.001" id="Fill-4" fill="#283165"></path>
                        <g id="Group-8" transform="translate(0.000000, 90.000000)">
                            <mask id="mask-4" fill="white">
                                <use xlink:href="#path-3"></use>
                            </mask>
                            <g id="Clip-6"></g>
                            <path d="M70.72,10.334 C70.72,10.334 56.387,6.001 52.72,0.667 L36.72,2.001 C36.72,2.001 46.053,14 70.72,10.334" id="Fill-5" fill="#283165" mask="url(#mask-4)"></path>
                            <path d="M139.054,173.668 C67.809,173.668 10.053,137.627 10.053,93.168 C10.053,61.834 34.386,37.334 63.72,28.667 L68.72,27.001 C59.053,23.001 47.511,27.167 46.386,27.001 C46.886,25.542 55.386,20.001 55.386,20.001 L59.386,17.334 C40.053,17.001 29.72,28.667 29.72,28.667 C19.053,39.001 3.386,39.667 3.386,39.667 C10.108,43.402 20.545,41.558 25.4,40.385 C11.965,50.513 -0.931,68.17 0.053,95.834 C1.72,142.668 59.227,179 132.22,179 C180.509,179 222.744,162.701 245.804,138.371 C222.595,159.674 183.445,173.668 139.054,173.668" id="Fill-7" fill="#283165" mask="url(#mask-4)"></path>
                        </g>
                        <polyline id="Fill-9" fill="#0A0B09" points="62.158 146.144 52.698 146.144 52.698 138.553 81.849 138.553 81.849 146.144 72.389 146.144 72.389 176.943 62.158 176.943 62.158 146.144"></polyline>
                        <path d="M101.208,156.209 C100.108,155.879 99.009,155.879 97.854,155.879 C93.233,155.879 90.648,159.234 90.648,164.844 L90.648,176.943 L80.748,176.943 L80.748,148.288 L89.769,148.288 L89.769,153.568 L89.878,153.568 C91.584,149.939 94.059,147.628 98.349,147.628 C99.503,147.628 100.713,147.793 101.704,147.958 L101.208,156.209" id="Fill-10" fill="#0A0B09"></path>
                        <path d="M133.547,176.943 L124.527,176.943 L124.527,171.664 L124.417,171.664 C122.438,175.789 118.478,177.603 113.967,177.603 C106.157,177.603 103.022,172.103 103.022,166.164 L103.022,148.288 L112.922,148.288 L112.922,162.148 C112.922,167.539 114.792,169.353 117.487,169.353 C121.558,169.353 123.647,166.549 123.647,160.389 L123.647,148.288 L133.547,148.288 L133.547,176.943" id="Fill-11" fill="#0A0B09"></path>
                        <path d="M138.277,169.023 C140.587,170.014 143.998,171.004 147.572,171.004 C149.607,171.004 151.587,170.674 151.587,168.693 C151.587,163.853 137.507,167.264 137.507,156.924 C137.507,150.324 143.998,147.628 149.717,147.628 C153.126,147.628 156.592,148.014 159.783,149.279 L159.012,156.154 C156.922,154.889 153.787,154.228 151.312,154.228 C149.167,154.228 146.748,154.613 146.748,156.209 C146.748,160.664 161.488,157.144 161.488,168.033 C161.488,175.68 154.613,177.603 148.123,177.603 C143.667,177.603 140.642,177.164 137.727,176.228 L138.277,169.023" id="Fill-12" fill="#0A0B09"></path>
                        <path d="M162.917,148.288 L168.748,148.288 L168.748,141.854 L178.482,138.828 L178.482,148.288 L185.412,148.288 L185.412,155.219 L178.482,155.219 L178.482,165.779 C178.482,169.244 179.307,171.004 182.443,171.004 C183.432,171.004 184.478,170.783 185.467,170.619 L185.797,177.055 C183.927,177.273 182.057,177.603 179.582,177.603 C170.727,177.603 168.582,173.699 168.582,166.879 L168.582,155.219 L162.917,155.219 L162.917,148.288" id="Fill-13" fill="#0A0B09"></path>
                        <path d="M208.511,159.894 C208.511,156.594 206.971,153.898 203.011,153.898 C199.437,153.898 197.732,156.594 197.511,159.894 L208.511,159.894 Z M197.621,165.504 C198.171,169.463 201.197,171.004 206.037,171.004 C208.732,171.004 211.812,170.398 214.781,168.805 L214.781,175.789 C211.591,177.055 207.961,177.603 204.277,177.603 C194.816,177.603 187.611,172.049 187.611,162.588 C187.611,153.129 194.046,147.628 202.957,147.628 C213.572,147.628 217.421,155.164 217.421,163.689 L217.421,165.504 L197.621,165.504 L197.621,165.504 Z" id="Fill-14" fill="#0A0B09"></path>
                        <path d="M236.561,170.014 C239.861,170.014 242.611,166.879 242.611,162.699 C242.611,158.353 240.191,155.219 236.561,155.219 C232.71,155.219 230.566,158.519 230.566,162.314 C230.566,166.879 232.821,170.014 236.561,170.014 Z M252.511,176.943 L243.38,176.943 L243.38,171.828 L243.271,171.828 C242.005,175.019 237.992,177.603 233.425,177.603 C224.901,177.603 220.335,170.564 220.335,162.094 C220.335,155.055 224.681,147.628 232.601,147.628 C236.561,147.628 239.916,148.673 242.446,151.974 L242.556,151.974 L242.556,135.694 L252.511,135.694 L252.511,176.943 L252.511,176.943 Z" id="Fill-15" fill="#0A0B09"></path>
                        <path d="M87.568,225.064 C84.654,225.779 81.409,226.603 76.184,226.603 C65.954,226.603 54.128,221.433 54.128,206.914 C54.128,193.549 63.479,186.894 76.128,186.894 C80.034,186.894 83.829,187.773 87.514,188.873 L86.688,197.178 C83.389,195.363 80.199,194.484 76.679,194.484 C69.419,194.484 64.688,199.764 64.688,206.914 C64.688,214.449 70.023,219.014 77.503,219.014 C80.858,219.014 84.269,218.135 87.074,217.033 L87.568,225.064" id="Fill-16" fill="#0A0B09"></path>
                        <path d="M89.603,184.693 L99.503,184.693 L99.503,201.523 L99.613,201.523 C101.758,198.553 104.893,196.629 109.183,196.629 C116.993,196.629 120.128,202.129 120.128,208.068 L120.128,225.943 L110.228,225.943 L110.228,212.084 C110.228,206.693 108.358,204.879 105.663,204.879 C101.593,204.879 99.503,207.683 99.503,213.844 L99.503,225.943 L89.603,225.943 L89.603,184.693" id="Fill-17" fill="#0A0B09"></path>
                        <path d="M145.868,211.644 C145.868,207.353 143.998,203.558 139.433,203.558 C134.868,203.558 132.998,207.353 132.998,211.644 C132.998,215.879 134.868,219.674 139.433,219.674 C143.998,219.674 145.868,215.879 145.868,211.644 Z M122.768,211.644 C122.768,202.129 129.973,196.629 139.433,196.629 C148.892,196.629 156.097,202.129 156.097,211.644 C156.097,221.103 148.892,226.603 139.433,226.603 C129.973,226.603 122.768,221.103 122.768,211.644 L122.768,211.644 Z" id="Fill-18" fill="#0A0B09"></path>
                        <path d="M159.892,225.943 L169.792,225.943 L169.792,197.289 L159.892,197.289 L159.892,225.943 Z M159.892,192.613 L169.792,192.613 L169.792,185.353 L159.892,185.353 L159.892,192.613 Z" id="Fill-19" fill="#0A0B09"></path>
                        <path d="M197.402,205.484 C195.587,204.383 193.773,203.889 191.408,203.889 C187.117,203.889 183.818,206.859 183.818,211.808 C183.818,216.373 187.667,219.344 191.958,219.344 C194.212,219.344 196.467,218.849 198.118,217.969 L198.337,225.338 C195.863,226.164 192.892,226.603 190.252,226.603 C180.792,226.603 173.587,221.103 173.587,211.644 C173.587,202.129 180.792,196.629 190.252,196.629 C193.222,196.629 195.863,197.123 198.118,198.224 L197.402,205.484" id="Fill-20" fill="#0A0B09"></path>
                        <path d="M219.842,208.894 C219.842,205.594 218.302,202.898 214.342,202.898 C210.767,202.898 209.062,205.594 208.842,208.894 L219.842,208.894 Z M208.953,214.504 C209.502,218.463 212.527,220.004 217.367,220.004 C220.062,220.004 223.142,219.398 226.113,217.805 L226.113,224.789 C222.922,226.055 219.292,226.603 215.607,226.603 C206.148,226.603 198.943,221.049 198.943,211.588 C198.943,202.129 205.377,196.629 214.288,196.629 C224.902,196.629 228.752,204.164 228.752,212.689 L228.752,214.504 L208.953,214.504 L208.953,214.504 Z" id="Fill-21" fill="#0A0B09"></path>
                        <path d="M238.128,199.326 L240.003,199.326 C241.262,199.326 242.353,199.158 242.353,197.619 C242.353,196.275 241.123,196.051 240.031,196.051 L238.128,196.051 L238.128,199.326 Z M236.001,194.428 L240.255,194.428 C242.998,194.428 244.48,195.379 244.48,197.787 C244.48,199.746 243.361,200.697 241.486,200.865 L244.564,205.873 L242.381,205.873 L239.416,200.949 L238.128,200.949 L238.128,205.873 L236.001,205.873 L236.001,194.428 Z M247.531,200.193 C247.531,195.463 244.117,192.049 239.891,192.049 C235.666,192.049 232.251,195.463 232.251,200.193 C232.251,204.922 235.666,208.336 239.891,208.336 C244.117,208.336 247.531,204.922 247.531,200.193 Z M229.789,200.193 C229.789,194.625 234.322,190.09 239.891,190.09 C245.46,190.09 249.994,194.625 249.994,200.193 C249.994,205.762 245.46,210.295 239.891,210.295 C234.322,210.295 229.789,205.762 229.789,200.193 L229.789,200.193 Z" id="Fill-22" fill="#0A0B09"></path>
                    </g>
                </g>
            </g>
        </g>
    </g>
</svg>