<?xml version="1.0" encoding="UTF-8"?>
<svg width="12px" height="16px" viewBox="0 0 12 16" version="1.1" xmlns="http://www.w3.org/2000/svg" xmlns:xlink="http://www.w3.org/1999/xlink">
    <!-- Generator: Sketch 58 (84663) - https://sketch.com -->
    <title>twitter</title>
    <desc>Created with Sketch.</desc>
    <g id="Landing-Page" stroke="none" stroke-width="1" fill="none" fill-rule="evenodd">
        <g id="1.1-LandingPage-LG" transform="translate(-1316.000000, -1024.000000)" fill="#FAFBFC" fill-rule="nonzero">
            <g id="Stacked-Group-5" transform="translate(1210.000000, 1016.000000)">
                <g id="twitter" transform="translate(96.000000, 0.000000)">
                    <path d="M19.1896147,23.1489362 L15.3353266,23.1489362 L15.2527133,23.1427971 C12.6316171,22.9003042 10.8772101,20.8851575 10.8937327,18.1456017 L10.8937327,10.6206481 C10.8937327,9.64146789 11.6672941,8.85106383 12.6271109,8.85106383 C13.5854257,8.85106383 14.3589871,9.64146789 14.3589871,10.6206481 L14.3589871,13.2328184 L19.3908909,13.2819309 C20.3477036,13.2926742 21.1182608,14.0907521 21.1062443,15.0699323 C21.097232,16.0429734 20.3221686,16.8241689 19.3743682,16.8241689 L19.3578455,16.8241689 L14.3589871,16.7750564 L14.3589871,18.1517408 C14.3529788,19.4071787 15.1235361,19.568329 15.4960472,19.6066982 L19.1896147,19.6066982 C20.1494316,19.6066982 20.9229929,20.398637 20.9229929,21.3778172 C20.9229929,22.3569973 20.1494316,23.1489362 19.1896147,23.1489362"></path>
                </g>
            </g>
        </g>
    </g>
</svg>