<svg xmlns="http://www.w3.org/2000/svg" width="64" height="36" viewBox="0 0 70 40">
    <g fill="#FFF" fill-rule="evenodd">
        <path d="M67.697 32.365c-.237.006-.412.01-.526.01a6.248 6.248 0 0 1-2.932-.718 5.92 5.92 0 0 1-2.21-1.95c-.7-1.047-1.053-2.436-1.053-4.167v-9.98h4.579v4.655h2.057v4.815h-2.057c0 .965.153 1.631.458 1.997.305.366.868.549 1.684.549v4.79zM50.319 20.13a2.91 2.91 0 0 0-.233-.012c-.58 0-1.028.191-1.34.573-.315.383-.472.926-.472 1.632v.415h2.045v4.776h-2.045v4.68h-4.58V21.871c0-1.16.2-2.152.6-2.973.508-1.047 1.276-1.902 2.309-2.565 1.033-.662 2.108-.993 3.225-.993l.49.013v4.777zM58.948 20.13a2.902 2.902 0 0 0-.233-.012c-.579 0-1.026.191-1.34.573-.315.383-.47.926-.47 1.632v.415h2.043v4.776h-2.044v4.68h-4.578V21.871c0-1.16.201-2.152.601-2.973.504-1.047 1.274-1.902 2.305-2.565 1.033-.662 2.108-.993 3.227-.993l.49.013v4.777zM41.629 22.88V33.199c0 1.162-.2 2.154-.601 2.973-.504 1.049-1.273 1.905-2.308 2.567-1.031.662-2.106.993-3.224.993l-.49-.013v-4.777c.105.008.183.013.232.013.58 0 1.027-.191 1.34-.574.315-.38.472-.924.472-1.631v-.15c-.053.002-.106.008-.16.008h-1.16c-1.524 0-2.748-.553-3.67-1.658-.726-.869-1.09-2.124-1.09-3.765v-6.97h4.577v6.544c0 .512.053.866.16 1.067.105.198.298.297.575.297.5 0 .755-.433.768-1.297V20.215h4.579v2.665zM28.751 27.697c0 1.364-.462 2.523-1.386 3.48-.922.953-2.038 1.43-3.352 1.43-1.356 0-2.571-.567-3.65-1.706-1.188 1.139-2.39 1.707-3.597 1.707-1.526 0-2.751-.553-3.674-1.658-.724-.869-1.088-2.124-1.088-3.765v-6.97h4.577v6.544c0 .512.053.866.159 1.067.107.198.3.297.576.297.516 0 .771-.453.771-1.364v-6.544h4.578v6.544c0 .512.057.866.167 1.067.109.198.302.297.581.297.506 0 .758-.453.758-1.364v-6.544h4.58v7.482zM10.95 20.35a3.617 3.617 0 0 0-.23-.013c-.58 0-1.029.191-1.341.573-.309.374-.463.905-.47 1.588h.019v3.347c0 1.162-.2 2.153-.601 2.974-.504 1.047-1.275 1.902-2.307 2.564-1.033.662-2.108.993-3.227.993l-.49-.01v-4.78c.108.01.185.013.235.013.58 0 1.024-.19 1.34-.572.307-.373.462-.905.469-1.588h-.018v-3.346c0-1.162.201-2.154.599-2.973.507-1.05 1.276-1.905 2.31-2.567 1.029-.66 2.105-.993 3.223-.993l.49.013v4.777zM28.144 5.24h4.577V.683h-4.577zM18.992 5.24h4.576V.683h-4.576zM9.84 5.24h4.576V.683H9.839zM.687 5.24h4.576V.683H.687zM37.297 5.24h4.576V.683h-4.576zM46.449 5.24h4.576V.683H46.45zM55.602 5.24h4.576V.683h-4.576zM64.754 5.24h4.576V.683h-4.576z"/>
    </g>
</svg>
