<svg xmlns="http://www.w3.org/2000/svg" width="38" height="64" viewBox="0 0 38 64">
    <path fill="#8FBF21" fill-rule="evenodd" d="M37.69 37.837c-.794-1.595-2.007-2.904-2.816-4.492-2.9-5.719-4.135-12.598-5.91-18.723C28.618 13.425 25.32-.081 24.554 0 17.829.717 11.103 1.426 4.369 2.142c-4.914.526-3.78 1.16-3.874 6.2L.038 33.049C-.157 43.814.385 53.309 1.785 64c4.164-2.35 2.093.976 3.695-2.556.73-1.588 2.252-3.14 4.027-3.318 9.512-.982 18.996-2.09 28.493-3.258-.613-3-2.108-7.012-2.021-10.071.065-2.372.894-4.773 1.71-6.96"/>
</svg>
