<?xml version="1.0" encoding="UTF-8"?>
<svg width="80px" height="68px" viewBox="0 0 80 68" version="1.1" xmlns="http://www.w3.org/2000/svg" xmlns:xlink="http://www.w3.org/1999/xlink">
    <!-- Generator: Sketch 58 (84663) - https://sketch.com -->
    <title>Group 14</title>
    <desc>Created with Sketch.</desc>
    <defs>
        <linearGradient x1="50%" y1="0%" x2="50%" y2="100%" id="linearGradient-1">
            <stop stop-color="#EEEEF6" offset="0%"></stop>
            <stop stop-color="#D9D9E9" offset="100%"></stop>
        </linearGradient>
        <linearGradient x1="50%" y1="0%" x2="50%" y2="100%" id="linearGradient-2">
            <stop stop-color="#EEEEF6" offset="0%"></stop>
            <stop stop-color="#D9D9E9" offset="100%"></stop>
        </linearGradient>
        <linearGradient x1="50%" y1="0%" x2="50%" y2="100%" id="linearGradient-3">
            <stop stop-color="#EEEEF6" offset="0%"></stop>
            <stop stop-color="#D9D9E9" offset="100%"></stop>
        </linearGradient>
    </defs>
    <g id="Page-Name" stroke="none" stroke-width="1" fill="none" fill-rule="evenodd" stroke-linecap="round">
        <g id="Group-14" transform="translate(1.000000, 1.000000)" stroke="#C5C5D4" stroke-width="2">
            <g id="Group-8" fill="url(#linearGradient-1)">
                <path d="M10.6578947,0 C11.4863219,-3.74224199e-16 12.1578947,0.671572875 12.1578947,1.5 L12.1586874,5.54424204 C13.2563403,5.66099356 14.2160095,5.89172069 15.0377084,6.23642569 C16.2802653,6.75768179 17.2788497,7.43096081 18.0334916,8.25628297 C18.7881335,9.08160512 19.3345901,9.99689227 19.6728778,11.0021719 C20.0111655,12.0074515 20.2128341,12.9941 20.2778894,13.9621471 C20.3429447,14.9301941 15.6524786,14.7936747 15.5744122,13.9621471 C15.4963458,13.1306195 15.3109409,12.4108004 15.0181919,11.8026683 C14.7254429,11.1945362 14.3448749,10.6919039 13.8764765,10.2947564 C13.4080781,9.89760894 12.8746323,9.60285545 12.2761232,9.41048712 L12.157,9.375 L12.156703,17.1560204 C12.4997846,17.2657399 12.8453494,17.3770384 13.1933989,17.4899162 C14.1692289,17.8063931 15.125528,18.1569947 16.0623248,18.5417313 C16.9991216,18.9264679 17.8318174,19.3980735 18.5604371,19.9565622 C19.2890569,20.5150509 19.8777988,21.1852272 20.3266807,21.9671114 C20.7755625,22.7489955 21,23.6860014 21,24.778157 C21,26.106119 20.7430353,27.2665169 20.2290981,28.2593857 C19.715161,29.2522544 18.999563,30.0775642 18.0822828,30.7353397 C17.1650026,31.3931153 16.0785948,31.8895422 14.8230269,32.2246354 C13.9877739,32.4475525 13.099269,32.5963219 12.1575,32.6709451 L12.1578947,34.5 C12.1578947,35.3284271 11.4863219,36 10.6578947,36 L10.3421053,36 C9.51367814,36 8.84210526,35.3284271 8.84210526,34.5 L8.84239829,32.58097 C8.14784977,32.469753 7.46438095,32.2951265 6.79198593,32.0570897 C5.52991244,31.6102987 4.40121931,30.9649437 3.40587269,30.1210053 C2.41052607,29.2770668 1.60385201,28.256289 0.985826335,27.058641 C0.367800655,25.8609931 0.0392761422,24.505127 0.000242941315,22.9910022 C-0.0387902595,21.4768773 4.63866479,22.0974203 4.70372013,22.9910022 C4.76877546,23.8845841 4.96068582,24.7005858 5.27945696,25.439032 C5.5982281,26.1774781 6.01782872,26.8135251 6.53827139,27.3471921 C7.05871407,27.880859 7.67022505,28.2935139 8.37282266,28.5851691 C8.52571457,28.648636 8.68199461,28.7051974 8.84166303,28.7548531 L8.84332715,19.973146 C8.74845154,19.9429162 8.65341898,19.9125667 8.55822944,19.8820974 C7.58890495,19.5718259 6.63585859,19.2212244 5.69906177,18.8302823 C4.76226495,18.4393403 3.92956916,17.9615294 3.20094941,17.3968352 C2.47232966,16.8321411 1.88358771,16.1526568 1.4347059,15.3583618 C0.98582409,14.5640668 0.761386552,13.6084449 0.761386552,12.4914676 C0.761386552,11.3496685 0.995582244,10.3413013 1.46398065,9.46633571 C1.93237906,8.59137012 2.59268081,7.85603773 3.44490569,7.26031648 C4.29713058,6.66459522 5.31197858,6.21470832 6.48948014,5.91064226 C7.22895112,5.71968878 8.01331383,5.58869559 8.84257786,5.51766156 L8.84210526,1.5 C8.84210526,0.671572875 9.51367814,-6.98650109e-17 10.3421053,0 L10.6578947,0 Z M12.1593715,21.0170917 L12.1585702,28.9206505 C12.3862393,28.8880163 12.6108301,28.8475513 12.8323436,28.7992554 C13.5154246,28.650325 14.1171774,28.4083169 14.6376201,28.0732237 C15.1580628,27.7381305 15.5744106,27.3006543 15.8866763,26.7607819 C16.1989419,26.2209095 16.3550723,25.5600411 16.3550723,24.778157 C16.3550723,24.070738 16.1306348,23.4781284 15.681753,23.0003103 C15.2328712,22.5224922 14.6441292,22.103632 13.9155095,21.743717 C13.3852545,21.481788 12.7998784,21.2395808 12.1593715,21.0170917 Z M8.54847119,9.29878995 C7.94996211,9.41669311 7.41651636,9.60905855 6.94811795,9.87589203 C6.47971954,10.1427255 6.10240426,10.4902244 5.81616079,10.918399 C5.52991732,11.3465737 5.38679773,11.8709246 5.38679773,12.4914676 C5.38679773,13.2112974 5.61123526,13.8163177 6.06011707,14.3065467 C6.50899888,14.7967756 7.09774083,15.2249439 7.82636058,15.5910642 C8.14453644,15.7509428 8.48255878,15.9037204 8.84042967,16.049398 L8.84226065,9.24573555 C8.74415746,9.26184763 8.64622767,9.27953243 8.54847119,9.29878995 Z" id="Combined-Shape"></path>
            </g>
            <g id="Group-6" transform="translate(56.000000, 44.000000)" fill="url(#linearGradient-2)">
                <path d="M11,21.4220703 C17.1650621,21.4220703 22.0893789,19.1285733 21.9987694,16.2994013 C21.9081598,13.4702294 16.983843,11.1767323 11,11.1767323 C5.01615697,11.1767323 0.0918402011,13.4702294 0.00123064524,16.2994013 C-0.0893789106,19.1285733 4.83493786,21.4220703 11,21.4220703 Z" id="Oval"></path>
                <path d="M11,15.8337041 C17.1650621,15.8337041 22.0893789,13.5402071 21.9987694,10.7110352 C21.9081598,7.8818632 16.983843,5.58836617 11,5.58836617 C5.01615697,5.58836617 0.0918402011,7.8818632 0.00123064524,10.7110352 C-0.0893789106,13.5402071 4.83493786,15.8337041 11,15.8337041 Z" id="Oval"></path>
                <path d="M11,10.245338 C17.1650621,10.245338 22.0893789,7.95184095 21.9987694,5.12266899 C21.9081598,2.29349703 16.983843,0 11,0 C5.01615697,0 0.0918402011,2.29349703 0.00123064524,5.12266899 C-0.0893789106,7.95184095 4.83493786,10.245338 11,10.245338 Z" id="Oval"></path>
            </g>
            <path d="M26.1730449,37.5596292 C28.1225822,35.2465859 30.0239842,34.0920279 31.8772507,34.0959553 C35.087038,34.1027789 36.9088744,40.695301 41.0299276,40.7040699 C43.5649471,40.7094371 45.561105,39.6760401 47.0184013,37.6038788" id="Line" fill="url(#linearGradient-3)" transform="translate(36.595723, 37.400013) rotate(-39.000000) translate(-36.595723, -37.400013) "></path>
        </g>
    </g>
</svg>