<?xml version="1.0" encoding="UTF-8"?>
<svg width="91px" height="80px" viewBox="0 0 91 80" version="1.1" xmlns="http://www.w3.org/2000/svg" xmlns:xlink="http://www.w3.org/1999/xlink">
    <!-- Generator: Sketch 58 (84663) - https://sketch.com -->
    <title>Group 13</title>
    <desc>Created with Sketch.</desc>
    <defs>
        <linearGradient x1="50%" y1="0%" x2="50%" y2="100%" id="linearGradient-1">
            <stop stop-color="#EEEEF6" offset="0%"></stop>
            <stop stop-color="#D9D9E9" offset="100%"></stop>
        </linearGradient>
        <linearGradient x1="50%" y1="0%" x2="50%" y2="100%" id="linearGradient-2">
            <stop stop-color="#EEEEF6" offset="0%"></stop>
            <stop stop-color="#D9D9E9" offset="100%"></stop>
        </linearGradient>
        <linearGradient x1="50%" y1="0%" x2="50%" y2="100%" id="linearGradient-3">
            <stop stop-color="#EEEEF6" offset="0%"></stop>
            <stop stop-color="#D9D9E9" offset="100%"></stop>
        </linearGradient>
    </defs>
    <g id="Page-Name" stroke="none" stroke-width="1" fill="none" fill-rule="evenodd" stroke-linecap="round">
        <g id="1.1-PageName-LG" transform="translate(-414.000000, -2194.000000)" stroke="#C5C5D4" stroke-width="3">
            <g id="Group-3" transform="translate(399.000000, 2180.000000)">
                <g id="Group-2">
                    <g id="Group-13" transform="translate(17.000000, 16.000000)">
                        <g id="Group-11" transform="translate(45.000000, 41.000000)">
                            <path d="M4,18.8740234 C7.28158509,14.9580078 10.4782236,13 13.5899156,13 C18.979248,13 22.0147059,24.1347656 28.934082,24.1347656 C33.1904584,24.1347656 36.5457644,22.3811849 39,18.8740234" id="Line" fill="url(#linearGradient-1)" transform="translate(21.500000, 18.567383) rotate(-210.000000) translate(-21.500000, -18.567383) "></path>
                            <circle id="Oval" fill="url(#linearGradient-2)" cx="37" cy="5" r="5"></circle>
                            <circle id="Oval" fill="url(#linearGradient-2)" cx="5" cy="30" r="5"></circle>
                        </g>
                        <g id="Group-10">
                            <circle id="Oval" fill="url(#linearGradient-2)" cx="5" cy="19" r="5"></circle>
                            <circle id="Oval" fill="url(#linearGradient-2)" cx="17" cy="5" r="5"></circle>
                            <circle id="Oval" fill="url(#linearGradient-2)" cx="35" cy="5" r="5"></circle>
                            <circle id="Oval" fill="url(#linearGradient-2)" cx="47" cy="19" r="5"></circle>
                            <path d="M31.0783324,19.3586513 L40.4878938,31.7712641 C42.8233601,34.8520921 42.2191251,39.2428661 39.1382972,41.5783324 C37.9214984,42.5007445 36.4364678,43 34.9095613,43 L16.0904387,43 C12.2244454,43 9.09043868,39.8659932 9.09043868,36 C9.09043868,34.4730935 9.58969422,32.9880629 10.5121062,31.7712641 L19.9216676,19.3586513 C22.2571339,16.2778234 26.6479079,15.6735884 29.7287359,18.0090547 C30.2381092,18.3951926 30.6921946,18.849278 31.0783324,19.3586513 Z" id="Triangle" fill="url(#linearGradient-3)"></path>
                        </g>
                    </g>
                </g>
            </g>
        </g>
    </g>
</svg>