<?xml version="1.0" encoding="UTF-8"?>
<svg width="143px" height="168px" viewBox="0 0 143 168" version="1.1" xmlns="http://www.w3.org/2000/svg" xmlns:xlink="http://www.w3.org/1999/xlink">
    <!-- Generator: Sketch 58 (84663) - https://sketch.com -->
    <title>Group 7</title>
    <desc>Created with Sketch.</desc>
    <g id="Page-Name" stroke="none" stroke-width="1" fill="none" fill-rule="evenodd">
        <g id="1.1-PageName-LG" transform="translate(-478.000000, -1046.000000)">
            <g id="Group-9" transform="translate(0.000000, 1014.000000)">
                <g id="Group-8" transform="translate(478.000000, 32.000000)">
                    <g id="Group-7">
                        <g id="Group-5">
                            <path d="M8.34166667,0 C13.3871833,0 17.4777778,4.09967773 17.4777778,9.1563981 L17.4777778,13.3364929 L17.4777778,168 L143,168 L143,20.3033175 L143,8.36018957 C143,3.7429763 139.265317,0 134.658333,0 L7.94444444,0" id="Fill-1" fill="#FFFFFF"></path>
                            <path d="M8.73888889,0 C3.91263889,0 0,3.92132701 0,8.75829384 L17.4777778,8.75829384 C17.4777778,3.92132701 13.5651389,0 8.73888889,0" id="Fill-3" fill="#CCCCCC"></path>
                        </g>
                        <g id="badge" transform="translate(66.000000, 20.000000)">
                            <path d="M28.7005046,20.6971077 C28.9860431,19.9246769 29.2011815,19.1182769 29.3424738,18.2867692 L31.9999508,16 L29.3424738,13.7127385 C29.2011815,12.8817231 28.9860431,12.0753231 28.7005046,11.3028923 L29.8564431,8 L26.4127508,7.34867692 C25.8805662,6.70916923 25.2907815,6.11938462 24.6512738,5.58769231 L23.9999508,2.14350769 L20.6970585,3.29944615 C19.9246277,3.01390769 19.1182277,2.79926154 18.2872123,2.65747692 L15.9999508,0 L13.7131815,2.65747692 C12.8816738,2.79926154 12.0752738,3.01390769 11.3028431,3.29944615 L7.99995077,2.14350769 L7.34862769,5.58769231 C6.70912,6.11938462 6.11933538,6.70916923 5.58764308,7.34867692 L2.14395077,8 L3.29939692,11.3028923 C3.01385846,12.0753231 2.79921231,12.8817231 2.65792,13.7127385 L-4.92307692e-05,16 L2.65792,18.2867692 C2.79921231,19.1182769 3.01385846,19.9246769 3.29939692,20.6971077 L2.14395077,24 L5.58764308,24.6513231 C6.11933538,25.2908308 6.70912,25.8806154 7.34862769,26.4123077 L7.99995077,29.856 L11.3028431,28.7005538 C12.0752738,28.9860923 12.8816738,29.2007385 13.7131815,29.3425231 L15.9999508,32 L18.2872123,29.3425231 C19.1182277,29.2007385 19.9246277,28.9860923 20.6970585,28.7005538 L23.9999508,29.856 L24.6512738,26.4123077 C25.2907815,25.8806154 25.8805662,25.2908308 26.4127508,24.6513231 L29.8564431,24 L28.7005046,20.6971077 Z" id="Fill-1" fill="#8FBF21"></path>
                            <polygon id="Fill-4" fill="#FFFFFF" points="19.5427938 10.8605538 14.8191015 16.6786462 11.9095631 14.3170462 9.54796308 17.2265846 12.4570092 19.5881846 15.3665477 21.9497846 17.7281477 19.0407385 22.45184 13.2221538"></polygon>
                        </g>
                        <rect id="Rectangle" fill="#E4E4E4" x="37" y="67" width="91" height="11" rx="1"></rect>
                        <rect id="Rectangle" fill="#E4E4E4" x="37" y="91" width="91" height="11" rx="1"></rect>
                        <rect id="Rectangle" fill="#E4E4E4" x="37" y="114" width="91" height="11" rx="1"></rect>
                    </g>
                </g>
            </g>
        </g>
    </g>
</svg>